<mxfile host="app.diagrams.net" modified="2023-02-07T03:07:44.121Z" agent="5.0 (Macintosh; Intel Mac OS X 10_15_7) AppleWebKit/537.36 (KHTML, like Gecko) Chrome/109.0.0.0 Safari/537.36" etag="ikPWh-qp77dZK8ZLtIoo" version="20.8.17" type="github">
  <diagram name="Page-1" id="_tMD7D5ke1YXCUWgseuu">
    <mxGraphModel dx="1590" dy="943" grid="1" gridSize="10" guides="1" tooltips="1" connect="1" arrows="1" fold="1" page="1" pageScale="1" pageWidth="850" pageHeight="1100" math="0" shadow="0">
      <root>
        <mxCell id="0" />
        <mxCell id="1" parent="0" />
        <mxCell id="3ECeMIUdn46JQkj1NZ4u-2" value="Người mua DV" style="rounded=0;whiteSpace=wrap;html=1;" vertex="1" parent="1">
          <mxGeometry x="60" y="40" width="120" height="60" as="geometry" />
        </mxCell>
        <mxCell id="3ECeMIUdn46JQkj1NZ4u-4" value="Người bán dv" style="rounded=0;whiteSpace=wrap;html=1;" vertex="1" parent="1">
          <mxGeometry x="610" y="40" width="120" height="60" as="geometry" />
        </mxCell>
        <mxCell id="3ECeMIUdn46JQkj1NZ4u-5" value="Giao dịch đảm bảo" style="rounded=0;whiteSpace=wrap;html=1;" vertex="1" parent="1">
          <mxGeometry x="330" y="40" width="120" height="60" as="geometry" />
        </mxCell>
        <mxCell id="3ECeMIUdn46JQkj1NZ4u-6" value="" style="endArrow=none;dashed=1;html=1;dashPattern=1 3;strokeWidth=2;rounded=0;" edge="1" parent="1">
          <mxGeometry width="50" height="50" relative="1" as="geometry">
            <mxPoint x="120" y="520" as="sourcePoint" />
            <mxPoint x="120" y="100" as="targetPoint" />
          </mxGeometry>
        </mxCell>
        <mxCell id="3ECeMIUdn46JQkj1NZ4u-7" value="" style="endArrow=none;dashed=1;html=1;dashPattern=1 3;strokeWidth=2;rounded=0;" edge="1" parent="1">
          <mxGeometry width="50" height="50" relative="1" as="geometry">
            <mxPoint x="389.5" y="520" as="sourcePoint" />
            <mxPoint x="389.5" y="100" as="targetPoint" />
          </mxGeometry>
        </mxCell>
        <mxCell id="3ECeMIUdn46JQkj1NZ4u-8" value="" style="endArrow=none;dashed=1;html=1;dashPattern=1 3;strokeWidth=2;rounded=0;" edge="1" parent="1">
          <mxGeometry width="50" height="50" relative="1" as="geometry">
            <mxPoint x="680" y="520" as="sourcePoint" />
            <mxPoint x="680" y="100" as="targetPoint" />
          </mxGeometry>
        </mxCell>
        <mxCell id="3ECeMIUdn46JQkj1NZ4u-9" value="" style="endArrow=classic;html=1;rounded=0;" edge="1" parent="1">
          <mxGeometry width="50" height="50" relative="1" as="geometry">
            <mxPoint x="120" y="140" as="sourcePoint" />
            <mxPoint x="380" y="140" as="targetPoint" />
          </mxGeometry>
        </mxCell>
        <mxCell id="3ECeMIUdn46JQkj1NZ4u-10" value="Tạo giao dịch" style="text;html=1;strokeColor=none;fillColor=none;align=center;verticalAlign=middle;whiteSpace=wrap;rounded=0;" vertex="1" parent="1">
          <mxGeometry x="170" y="110" width="90" height="30" as="geometry" />
        </mxCell>
        <mxCell id="3ECeMIUdn46JQkj1NZ4u-11" value="" style="shape=link;html=1;rounded=0;strokeWidth=3;fillColor=#ffe6cc;strokeColor=#d79b00;" edge="1" parent="1">
          <mxGeometry width="100" relative="1" as="geometry">
            <mxPoint x="389.5" y="130" as="sourcePoint" />
            <mxPoint x="389.5" y="260" as="targetPoint" />
          </mxGeometry>
        </mxCell>
        <mxCell id="3ECeMIUdn46JQkj1NZ4u-12" value="" style="endArrow=classic;html=1;rounded=0;" edge="1" parent="1">
          <mxGeometry width="50" height="50" relative="1" as="geometry">
            <mxPoint x="400" y="170" as="sourcePoint" />
            <mxPoint x="680" y="170" as="targetPoint" />
          </mxGeometry>
        </mxCell>
        <mxCell id="3ECeMIUdn46JQkj1NZ4u-13" value="Truyền thông" style="text;html=1;strokeColor=none;fillColor=none;align=center;verticalAlign=middle;whiteSpace=wrap;rounded=0;" vertex="1" parent="1">
          <mxGeometry x="450" y="140" width="90" height="30" as="geometry" />
        </mxCell>
        <mxCell id="3ECeMIUdn46JQkj1NZ4u-16" value="" style="endArrow=classic;html=1;rounded=0;" edge="1" parent="1">
          <mxGeometry width="50" height="50" relative="1" as="geometry">
            <mxPoint x="400" y="210" as="sourcePoint" />
            <mxPoint x="400" y="210" as="targetPoint" />
            <Array as="points">
              <mxPoint x="680" y="210" />
            </Array>
          </mxGeometry>
        </mxCell>
        <mxCell id="3ECeMIUdn46JQkj1NZ4u-17" value="ĐK &amp;amp; xác nhận giao dịch" style="text;html=1;strokeColor=none;fillColor=none;align=center;verticalAlign=middle;whiteSpace=wrap;rounded=0;" vertex="1" parent="1">
          <mxGeometry x="460" y="180" width="160" height="30" as="geometry" />
        </mxCell>
        <mxCell id="3ECeMIUdn46JQkj1NZ4u-18" value="" style="endArrow=classic;html=1;rounded=0;" edge="1" parent="1">
          <mxGeometry width="50" height="50" relative="1" as="geometry">
            <mxPoint x="120" y="330" as="sourcePoint" />
            <mxPoint x="380" y="330" as="targetPoint" />
          </mxGeometry>
        </mxCell>
        <mxCell id="3ECeMIUdn46JQkj1NZ4u-19" value="Chuyển tiền" style="text;html=1;strokeColor=none;fillColor=none;align=center;verticalAlign=middle;whiteSpace=wrap;rounded=0;" vertex="1" parent="1">
          <mxGeometry x="170" y="300" width="90" height="30" as="geometry" />
        </mxCell>
        <mxCell id="3ECeMIUdn46JQkj1NZ4u-21" value="Thông báo gd đã đc xác nhận" style="text;html=1;strokeColor=none;fillColor=none;align=center;verticalAlign=middle;whiteSpace=wrap;rounded=0;" vertex="1" parent="1">
          <mxGeometry x="170" y="210" width="180" height="30" as="geometry" />
        </mxCell>
        <mxCell id="3ECeMIUdn46JQkj1NZ4u-22" value="" style="endArrow=classic;html=1;rounded=0;" edge="1" parent="1">
          <mxGeometry width="50" height="50" relative="1" as="geometry">
            <mxPoint x="130" y="250" as="sourcePoint" />
            <mxPoint x="130" y="250" as="targetPoint" />
            <Array as="points">
              <mxPoint x="390" y="250" />
            </Array>
          </mxGeometry>
        </mxCell>
        <mxCell id="3ECeMIUdn46JQkj1NZ4u-23" value="" style="shape=link;html=1;rounded=0;strokeWidth=3;fillColor=#ffe6cc;strokeColor=#d79b00;" edge="1" parent="1">
          <mxGeometry width="100" relative="1" as="geometry">
            <mxPoint x="389.5" y="310" as="sourcePoint" />
            <mxPoint x="390" y="480" as="targetPoint" />
          </mxGeometry>
        </mxCell>
        <mxCell id="3ECeMIUdn46JQkj1NZ4u-24" value="" style="endArrow=classic;html=1;rounded=0;" edge="1" parent="1">
          <mxGeometry width="50" height="50" relative="1" as="geometry">
            <mxPoint x="400" y="370" as="sourcePoint" />
            <mxPoint x="660" y="370" as="targetPoint" />
          </mxGeometry>
        </mxCell>
        <mxCell id="3ECeMIUdn46JQkj1NZ4u-25" value="Báo Ng mua đã chuyển tiền &amp;amp; hold tiền" style="text;html=1;strokeColor=none;fillColor=none;align=center;verticalAlign=middle;whiteSpace=wrap;rounded=0;" vertex="1" parent="1">
          <mxGeometry x="450" y="340" width="150" height="30" as="geometry" />
        </mxCell>
        <mxCell id="3ECeMIUdn46JQkj1NZ4u-26" value="" style="endArrow=classic;html=1;rounded=0;" edge="1" parent="1">
          <mxGeometry width="50" height="50" relative="1" as="geometry">
            <mxPoint x="400" y="410" as="sourcePoint" />
            <mxPoint x="120" y="410" as="targetPoint" />
            <Array as="points">
              <mxPoint x="680" y="410" />
            </Array>
          </mxGeometry>
        </mxCell>
        <mxCell id="3ECeMIUdn46JQkj1NZ4u-27" value="Cung cấp dịch vụ" style="text;html=1;strokeColor=none;fillColor=none;align=center;verticalAlign=middle;whiteSpace=wrap;rounded=0;" vertex="1" parent="1">
          <mxGeometry x="425" y="380" width="160" height="30" as="geometry" />
        </mxCell>
        <mxCell id="3ECeMIUdn46JQkj1NZ4u-29" value="" style="endArrow=classic;html=1;rounded=0;" edge="1" parent="1">
          <mxGeometry width="50" height="50" relative="1" as="geometry">
            <mxPoint x="120" y="450" as="sourcePoint" />
            <mxPoint x="380" y="450" as="targetPoint" />
          </mxGeometry>
        </mxCell>
        <mxCell id="3ECeMIUdn46JQkj1NZ4u-30" value="Xác nhận đã nhận dv" style="text;html=1;strokeColor=none;fillColor=none;align=center;verticalAlign=middle;whiteSpace=wrap;rounded=0;" vertex="1" parent="1">
          <mxGeometry x="170" y="420" width="90" height="30" as="geometry" />
        </mxCell>
        <mxCell id="3ECeMIUdn46JQkj1NZ4u-31" value="" style="endArrow=classic;html=1;rounded=0;" edge="1" parent="1">
          <mxGeometry width="50" height="50" relative="1" as="geometry">
            <mxPoint x="400" y="470" as="sourcePoint" />
            <mxPoint x="680" y="470" as="targetPoint" />
          </mxGeometry>
        </mxCell>
        <mxCell id="3ECeMIUdn46JQkj1NZ4u-32" value="Thanh toán tền" style="text;html=1;strokeColor=none;fillColor=none;align=center;verticalAlign=middle;whiteSpace=wrap;rounded=0;" vertex="1" parent="1">
          <mxGeometry x="495" y="440" width="90" height="30" as="geometry" />
        </mxCell>
        <mxCell id="3ECeMIUdn46JQkj1NZ4u-38" value="Khởi tạo gd" style="edgeStyle=orthogonalEdgeStyle;rounded=1;sketch=1;orthogonalLoop=1;jettySize=auto;html=1;entryX=0;entryY=0.5;entryDx=0;entryDy=0;shadow=1;strokeWidth=1;" edge="1" parent="1" source="3ECeMIUdn46JQkj1NZ4u-33" target="3ECeMIUdn46JQkj1NZ4u-36">
          <mxGeometry relative="1" as="geometry" />
        </mxCell>
        <mxCell id="3ECeMIUdn46JQkj1NZ4u-33" value="" style="ellipse;fillColor=strokeColor;" vertex="1" parent="1">
          <mxGeometry x="60" y="590" width="30" height="30" as="geometry" />
        </mxCell>
        <mxCell id="3ECeMIUdn46JQkj1NZ4u-39" value="Không xác nhận" style="edgeStyle=orthogonalEdgeStyle;rounded=1;sketch=1;orthogonalLoop=1;jettySize=auto;html=1;shadow=1;strokeWidth=1;" edge="1" parent="1" source="3ECeMIUdn46JQkj1NZ4u-36">
          <mxGeometry relative="1" as="geometry">
            <mxPoint x="245" y="710" as="targetPoint" />
          </mxGeometry>
        </mxCell>
        <mxCell id="3ECeMIUdn46JQkj1NZ4u-41" style="edgeStyle=orthogonalEdgeStyle;rounded=1;sketch=1;orthogonalLoop=1;jettySize=auto;html=1;shadow=1;strokeWidth=1;entryX=0;entryY=0.5;entryDx=0;entryDy=0;" edge="1" parent="1" source="3ECeMIUdn46JQkj1NZ4u-36" target="3ECeMIUdn46JQkj1NZ4u-42">
          <mxGeometry relative="1" as="geometry">
            <mxPoint x="360" y="605" as="targetPoint" />
          </mxGeometry>
        </mxCell>
        <mxCell id="3ECeMIUdn46JQkj1NZ4u-43" value="Xác nhận" style="edgeLabel;html=1;align=center;verticalAlign=middle;resizable=0;points=[];" vertex="1" connectable="0" parent="3ECeMIUdn46JQkj1NZ4u-41">
          <mxGeometry x="-0.012" y="-1" relative="1" as="geometry">
            <mxPoint as="offset" />
          </mxGeometry>
        </mxCell>
        <mxCell id="3ECeMIUdn46JQkj1NZ4u-36" value="Chờ xác nhận" style="rounded=1;whiteSpace=wrap;html=1;" vertex="1" parent="1">
          <mxGeometry x="200" y="577.5" width="90" height="55" as="geometry" />
        </mxCell>
        <mxCell id="3ECeMIUdn46JQkj1NZ4u-40" value="Hủy" style="rounded=1;whiteSpace=wrap;html=1;" vertex="1" parent="1">
          <mxGeometry x="200" y="710" width="90" height="55" as="geometry" />
        </mxCell>
        <mxCell id="3ECeMIUdn46JQkj1NZ4u-44" style="edgeStyle=orthogonalEdgeStyle;rounded=1;sketch=1;orthogonalLoop=1;jettySize=auto;html=1;entryX=0.998;entryY=0.642;entryDx=0;entryDy=0;entryPerimeter=0;shadow=1;strokeWidth=1;" edge="1" parent="1" source="3ECeMIUdn46JQkj1NZ4u-42" target="3ECeMIUdn46JQkj1NZ4u-40">
          <mxGeometry relative="1" as="geometry">
            <Array as="points">
              <mxPoint x="420" y="745" />
            </Array>
          </mxGeometry>
        </mxCell>
        <mxCell id="3ECeMIUdn46JQkj1NZ4u-45" value="Không thanh toán/quá hạn" style="edgeLabel;html=1;align=center;verticalAlign=middle;resizable=0;points=[];" vertex="1" connectable="0" parent="3ECeMIUdn46JQkj1NZ4u-44">
          <mxGeometry x="-0.3582" y="3" relative="1" as="geometry">
            <mxPoint as="offset" />
          </mxGeometry>
        </mxCell>
        <mxCell id="3ECeMIUdn46JQkj1NZ4u-47" value="Thanh toán" style="edgeStyle=orthogonalEdgeStyle;rounded=1;sketch=1;orthogonalLoop=1;jettySize=auto;html=1;entryX=0;entryY=0.5;entryDx=0;entryDy=0;shadow=1;strokeWidth=1;" edge="1" parent="1" source="3ECeMIUdn46JQkj1NZ4u-42" target="3ECeMIUdn46JQkj1NZ4u-46">
          <mxGeometry relative="1" as="geometry" />
        </mxCell>
        <mxCell id="3ECeMIUdn46JQkj1NZ4u-42" value="Chờ thanh toán" style="rounded=1;whiteSpace=wrap;html=1;" vertex="1" parent="1">
          <mxGeometry x="390" y="577.5" width="90" height="55" as="geometry" />
        </mxCell>
        <mxCell id="3ECeMIUdn46JQkj1NZ4u-48" style="edgeStyle=orthogonalEdgeStyle;rounded=1;sketch=1;orthogonalLoop=1;jettySize=auto;html=1;exitX=0.5;exitY=1;exitDx=0;exitDy=0;shadow=1;strokeWidth=1;entryX=0.5;entryY=1;entryDx=0;entryDy=0;" edge="1" parent="1" source="3ECeMIUdn46JQkj1NZ4u-46" target="3ECeMIUdn46JQkj1NZ4u-40">
          <mxGeometry relative="1" as="geometry">
            <mxPoint x="530" y="870" as="targetPoint" />
          </mxGeometry>
        </mxCell>
        <mxCell id="3ECeMIUdn46JQkj1NZ4u-49" value="Không nhận được dv" style="edgeLabel;html=1;align=center;verticalAlign=middle;resizable=0;points=[];" vertex="1" connectable="0" parent="3ECeMIUdn46JQkj1NZ4u-48">
          <mxGeometry x="0.1769" y="-3" relative="1" as="geometry">
            <mxPoint as="offset" />
          </mxGeometry>
        </mxCell>
        <mxCell id="3ECeMIUdn46JQkj1NZ4u-50" style="edgeStyle=orthogonalEdgeStyle;rounded=1;sketch=1;orthogonalLoop=1;jettySize=auto;html=1;shadow=1;strokeWidth=1;entryX=0;entryY=0.5;entryDx=0;entryDy=0;" edge="1" parent="1" source="3ECeMIUdn46JQkj1NZ4u-46" target="3ECeMIUdn46JQkj1NZ4u-51">
          <mxGeometry relative="1" as="geometry">
            <mxPoint x="760" y="605" as="targetPoint" />
          </mxGeometry>
        </mxCell>
        <mxCell id="3ECeMIUdn46JQkj1NZ4u-52" value="Đã nhận dv" style="edgeLabel;html=1;align=center;verticalAlign=middle;resizable=0;points=[];" vertex="1" connectable="0" parent="3ECeMIUdn46JQkj1NZ4u-50">
          <mxGeometry x="-0.4879" y="-1" relative="1" as="geometry">
            <mxPoint x="19" y="-1" as="offset" />
          </mxGeometry>
        </mxCell>
        <mxCell id="3ECeMIUdn46JQkj1NZ4u-46" value="Chờ người mua xác nhận DV" style="rounded=1;whiteSpace=wrap;html=1;" vertex="1" parent="1">
          <mxGeometry x="600" y="577.5" width="90" height="55" as="geometry" />
        </mxCell>
        <mxCell id="3ECeMIUdn46JQkj1NZ4u-53" style="edgeStyle=orthogonalEdgeStyle;rounded=1;sketch=1;orthogonalLoop=1;jettySize=auto;html=1;shadow=1;strokeWidth=1;" edge="1" parent="1" source="3ECeMIUdn46JQkj1NZ4u-51">
          <mxGeometry relative="1" as="geometry">
            <mxPoint x="950" y="605" as="targetPoint" />
          </mxGeometry>
        </mxCell>
        <mxCell id="3ECeMIUdn46JQkj1NZ4u-51" value="Hoàn thành" style="rounded=1;whiteSpace=wrap;html=1;" vertex="1" parent="1">
          <mxGeometry x="810" y="577.5" width="90" height="55" as="geometry" />
        </mxCell>
        <mxCell id="3ECeMIUdn46JQkj1NZ4u-54" value="" style="ellipse;fillColor=strokeColor;" vertex="1" parent="1">
          <mxGeometry x="940" y="590" width="30" height="30" as="geometry" />
        </mxCell>
        <mxCell id="3ECeMIUdn46JQkj1NZ4u-58" value="Kết thúc" style="text;html=1;strokeColor=none;fillColor=none;align=center;verticalAlign=middle;whiteSpace=wrap;rounded=0;" vertex="1" parent="1">
          <mxGeometry x="920" y="550" width="60" height="30" as="geometry" />
        </mxCell>
      </root>
    </mxGraphModel>
  </diagram>
</mxfile>
